# xmcd CD database file
# 
# Track frame offsets:
# 	150
# 	11797
# 	26507
# 	39225
# 	51970
# 	64752
# 	79055
# 	92215
# 	106625
# 	119465
# 	133910
# 	148452
# 	160120
# 	171387
# 	182072
# 	195020
# 	208287
# 	222380
# 	233035
# 	243612
# 	257122
# 	267687
# 	280212
# 	292197
# 	302840
# 
# Disc length: 4168 seconds
# 
# Submitted via: Nero 5.5.7.2
# 
# Revision: 0
# Processed by: cddbd v1.4PL0 Copyright (c) Steve Scherf et al.
#
DISCID=84104619
DTITLE=Various Artist - The Chess Story - From Blues to Doo Wop
DYEAR=1900
DGENRE=
TTITLE0=Muddy Waters - Gypsy Woman
TTITLE1=Robert Nighthawk - Anna Lee
TTITLE2=Jimmy Rogers - That's All Right
TTITLE3=Jackie Brenston - Rocket 88
TTITLE4=John Lee Hooker - Walkin' The Boogie
TTITLE5=Willie Mabon - I Don't Know
TTITLE6=The Blue Jays - The White Cliffs of Dover
TTITLE7=Eddie Boyd - Third Degree
TTITLE8=Muddy Waters - I'm Your Hoochie Coochie Man
TTITLE9=Lowell Fulson - Reconsider Baby
TTITLE10=The Moonglows - Sincerely
TTITLE11=Little Walter - My Babe
TTITLE12=Bo Diddley - Bo Diddley
TTITLE13=Chuck Berry - Maybellene
TTITLE14=Bobby Charles - Later Alligator
TTITLE15=The Flamingos - I'll Be Home
TTITLE16=Howlin' Wolf - Smokestack Lightning
TTITLE17=Clarence Henry - Ain't Got No Home
TTITLE18=Dale Hawkins - Susie Q
TTITLE19=Lee Andrews and the Hearts - Long Lonely Nights
TTITLE20=The Tune Weavers - Happy Happy Birthday Baby
TTITLE21=Jimmy McCracklin - The Walk
TTITLE22=Chuck Berry - Johnny B. Goode
TTITLE23=The Monotones - The Book of Love
TTITLE24=Buddy Guy - First Time I Met The Blues
EXTD=
EXTT0=
EXTT1=
EXTT2=
EXTT3=
EXTT4=
EXTT5=
EXTT6=
EXTT7=
EXTT8=
EXTT9=
EXTT10=
EXTT11=
EXTT12=
EXTT13=
EXTT14=
EXTT15=
EXTT16=
EXTT17=
EXTT18=
EXTT19=
EXTT20=
EXTT21=
EXTT22=
EXTT23=
EXTT24=
PLAYORDER=
